<svg xmlns="http://www.w3.org/2000/svg" viewBox="0 0 20.16 18.53"><defs><style>.cls-1{fill:#7c7c7c;}</style></defs><title>Asset 9</title><g id="Layer_2" data-name="Layer 2"><g id="Layer_1-2" data-name="Layer 1"><circle class="cls-1" cx="10.29" cy="6.67" r="2.85"/><path class="cls-1" d="M12.37,10.94h-4a3,3,0,0,0-3,3v1.54a7.74,7.74,0,0,0,10-.39V14A3,3,0,0,0,12.37,10.94Z"/><path class="cls-1" d="M10.08,20.16A10.08,10.08,0,1,1,20.16,10.08,10.09,10.09,0,0,1,10.08,20.16Zm0-18.91a8.83,8.83,0,1,0,8.83,8.83A8.84,8.84,0,0,0,10.08,1.26Z"/></g></g></svg>