<?xml version="1.0" encoding="utf-8"?>
<!-- Generator: Adobe Illustrator 13.0.0, SVG Export Plug-In . SVG Version: 6.00 Build 14948)  -->
<!DOCTYPE svg PUBLIC "-//W3C//DTD SVG 1.1//EN" "http://www.w3.org/Graphics/SVG/1.1/DTD/svg11.dtd">
<svg version="1.1" id="Layer_1" xmlns="http://www.w3.org/2000/svg" xmlns:xlink="http://www.w3.org/1999/xlink" x="0px" y="0px"
	 width="150px" height="150px" viewBox="0 0 150 150" enable-background="new 0 0 150 150" xml:space="preserve">
<title>Asset 10</title>
<g id="Layer_2">
	<g id="Layer_1-2">
		<path fill="#FFFFFF" d="M115.52,0H21.437c-2.432-0.102-4.487,1.787-4.589,4.22c0,0.002,0,0.005,0,0.007v78.14
			c0.098,2.433,2.149,4.325,4.582,4.228c0.002-0.001,0.005-0.001,0.007-0.001h41.546c2.199,0.103,4.064-1.597,4.167-3.796
			c0-0.003,0-0.005,0-0.008v-0.665c-0.098-2.266-2.014-4.022-4.28-3.925c-0.002,0-0.005,0-0.008,0.001H25.725V14.433h86.172v18.72
			c0.098,2.099,1.878,3.721,3.977,3.624c0.003,0,0.006,0,0.009,0l0,0c2.265,0.102,4.185-1.652,4.287-3.917c0-0.003,0-0.005,0-0.008
			V4.227c-0.097-2.433-2.146-4.327-4.579-4.23C115.566-0.002,115.543-0.001,115.52,0z"/>
		<path fill="#FFFFFF" d="M91.546,32.79H42.693c-4.106,0-5.254-1.751-5.254-3.925s1.147-3.925,5.254-3.925h48.913
			c4.106,0,6.038,1.751,6.038,3.925S95.652,32.79,91.546,32.79z"/>
		<path fill="#FFFFFF" d="M62.138,50.543H41.727c-2.285,0-4.136-1.852-4.136-4.136c0-2.285,1.852-4.137,4.136-4.137h20.411
			c2.251-0.274,4.299,1.328,4.573,3.579s-1.328,4.299-3.579,4.573c-0.33,0.04-0.664,0.04-0.994,0V50.543z"/>
		<path fill="#FFFFFF" d="M56.763,67.995H41.727c-2.251,0.274-4.299-1.328-4.573-3.579c-0.274-2.251,1.328-4.298,3.579-4.573
			c0.33-0.04,0.664-0.04,0.994,0h15.036c2.251-0.274,4.299,1.328,4.573,3.579c0.274,2.251-1.328,4.299-3.579,4.573
			C57.427,68.036,57.093,68.036,56.763,67.995z"/>
		<path fill="#FFFFFF" d="M96.498,41.788c-13.055-0.545-24.083,9.59-24.638,22.645c0.555,13.054,11.583,23.19,24.638,22.645
			c13.055,0.546,24.082-9.591,24.637-22.645C120.58,51.378,109.553,41.242,96.498,41.788z M109.964,67.814h-8.575v7.911
			c-0.286,2.451-2.506,4.206-4.957,3.92c-2.057-0.24-3.68-1.863-3.92-3.92v-7.911h-8.695c-2.251,0.274-4.299-1.328-4.573-3.579
			c-0.274-2.251,1.328-4.298,3.579-4.573c0.33-0.04,0.664-0.04,0.994,0h8.635v-7.911c0.287-2.451,2.506-4.206,4.957-3.919
			c2.058,0.24,3.68,1.863,3.92,3.919v7.911h8.636c2.251-0.274,4.298,1.328,4.573,3.579c0.274,2.251-1.328,4.299-3.579,4.573
			C110.628,67.854,110.294,67.854,109.964,67.814L109.964,67.814z"/>
		<path fill="#FFFFFF" d="M48.309,150l-4.348-24.457L39.372,150h-8.394l-5.435-31.341h6.643l3.623,26.269l4.771-26.147h6.944
			l4.589,26.147l4.046-26.147h6.039l-5.495,31.341L48.309,150z"/>
		<path fill="#FFFFFF" d="M75.302,123.551v8.092h9.843v4.771h-9.843v8.515h12.077v4.891h-18.72v-31.159h18.72l-0.725,4.831
			L75.302,123.551z"/>
		<path fill="#FFFFFF" d="M117.935,140.882c0,7.005-5.677,9.118-13.345,9.118h-9.783v-31.341h8.575
			c8.212,0,13.225,2.234,13.225,8.032c-0.034,3.448-2.616,6.34-6.038,6.763C114.372,134.118,117.935,135.809,117.935,140.882z
			 M101.389,131.4h3.262c3.14,0,5.072-1.328,5.072-4.105s-1.933-3.805-6.039-3.805h-2.295V131.4z M110.93,140.641
			c0-3.503-2.476-4.711-6.039-4.711h-3.502v8.998h3.141c3.805,0,6.521-0.604,6.521-4.287H110.93z"/>
	</g>
</g>
</svg>
