<svg xmlns="http://www.w3.org/2000/svg" viewBox="0 0 19.26 24.84"><defs><style>.cls-1{fill:#7c7c7c;}</style></defs><title>Asset 10</title><g id="Layer_2" data-name="Layer 2"><g id="Layer_1-2" data-name="Layer 1"><path class="cls-1" d="M16.34,0H.76A.73.73,0,0,0,0,.7V13.64a.73.73,0,0,0,.76.7H7.64a.66.66,0,0,0,.69-.63V13.6a.68.68,0,0,0-.71-.65H1.47V2.39H15.74v3.1a.63.63,0,0,0,.66.6h0a.68.68,0,0,0,.71-.65V.7A.73.73,0,0,0,16.34,0Z"/><path class="cls-1" d="M12.37,5.43H4.28c-.68,0-.87-.29-.87-.65s.19-.65.87-.65h8.1c.68,0,1,.29,1,.65S13.05,5.43,12.37,5.43Z"/><path class="cls-1" d="M7.5,8.37H4.12A.68.68,0,1,1,4.12,7H7.5a.68.68,0,1,1,0,1.35Z"/><path class="cls-1" d="M6.61,11.26H4.12a.68.68,0,1,1,0-1.35H6.61a.68.68,0,1,1,0,1.35Z"/><path class="cls-1" d="M13.19,6.92a3.92,3.92,0,0,0-4.08,3.75,3.92,3.92,0,0,0,4.08,3.75,3.92,3.92,0,0,0,4.08-3.75A3.92,3.92,0,0,0,13.19,6.92Zm2.23,4.31H14v1.31a.74.74,0,0,1-1.47,0V11.23H11.09a.68.68,0,1,1,0-1.35h1.43V8.57a.74.74,0,0,1,1.47,0V9.88h1.43a.68.68,0,1,1,0,1.35Z"/><path class="cls-1" d="M5.21,24.84l-.72-4.05-.76,4.05H2.34l-.9-5.19h1.1L3.14,24l.79-4.33H5.08L5.84,24l.67-4.33h1l-.91,5.19Z"/><path class="cls-1" d="M9.68,20.46V21.8h1.63v.79H9.68V24h2v.81H8.58V19.65h3.1l-.12.8Z"/><path class="cls-1" d="M16.74,23.33c0,1.16-.94,1.51-2.21,1.51H12.91V19.65h1.42c1.36,0,2.19.37,2.19,1.33a1.14,1.14,0,0,1-1,1.12C16.15,22.21,16.74,22.49,16.74,23.33ZM14,21.76h.54c.52,0,.84-.22.84-.68s-.32-.63-1-.63H14Zm1.58,1.53c0-.58-.41-.78-1-.78H14V24h.52C15.15,24,15.6,23.9,15.6,23.29Z"/></g></g></svg>