<svg xmlns="http://www.w3.org/2000/svg" viewBox="0 0 34.28 34.28"><defs><style>.cls-1{fill:#7c7c7c;}</style></defs><title>Asset 11</title><g id="Layer_2" data-name="Layer 2"><g id="Layer_1-2" data-name="Layer 1"><path fill="#FFFFFF" d="M17.14,34.28A17.14,17.14,0,1,1,34.28,17.14,17.16,17.16,0,0,1,17.14,34.28Zm0-32.14a15,15,0,1,0,15,15A15,15,0,0,0,17.14,2.14Z"/><path fill="#FFFFFF" d="M27,11.26l-.14-.13a1.22,1.22,0,0,0-1-.34c-.06,0-6.19.89-8.72.93H17A86.26,86.26,0,0,1,8,10.7a1.22,1.22,0,0,0-1.24.57l-.15.25a1.22,1.22,0,0,0,.56,1.75,43.6,43.6,0,0,0,6.07,2.24c.19,0,.55.07.61.74a34.85,34.85,0,0,1-.74,6.55C12.68,24.62,11.86,27,11.85,27a1.22,1.22,0,0,0,.74,1.55l.76.27A1.22,1.22,0,0,0,14.92,28l2.13-6.57,2,6.74a1.22,1.22,0,0,0,1.61.79l.7-.27a1.22,1.22,0,0,0,.74-1.42s-.59-2.46-1.1-4.5a28.93,28.93,0,0,1-.52-4.52c-.06-.9-.11-1.67-.19-2.27,0-.11-.05-.37.44-.48a.88.88,0,0,0,.22-.06l5.62-2.22a1.22,1.22,0,0,0,.41-2Z"/><circle fill="#FFFFFF" cx="17.14" cy="7.5" r="2.98"/></g></g></svg>