<?xml version="1.0" encoding="UTF-8" standalone="no"?>
<!-- Generator: Adobe Illustrator 19.2.0, SVG Export Plug-In . SVG Version: 6.00 Build 0)  -->

<svg
   xmlns:dc="http://purl.org/dc/elements/1.1/"
   xmlns:cc="http://creativecommons.org/ns#"
   xmlns:rdf="http://www.w3.org/1999/02/22-rdf-syntax-ns#"
   xmlns:svg="http://www.w3.org/2000/svg"
   xmlns="http://www.w3.org/2000/svg"
   xmlns:sodipodi="http://sodipodi.sourceforge.net/DTD/sodipodi-0.dtd"
   xmlns:inkscape="http://www.inkscape.org/namespaces/inkscape"
   version="1.1"
   x="0px"
   y="0px"
   viewBox="0 0 50 150"
   style="enable-background:new 0 0 50 150;"
   xml:space="preserve"
   id="svg2"
   inkscape:version="0.91 r13725"
   sodipodi:docname="backward.svg"><metadata
     id="metadata20"><rdf:RDF><cc:Work
         rdf:about=""><dc:format>image/svg+xml</dc:format><dc:type
           rdf:resource="http://purl.org/dc/dcmitype/StillImage" /></cc:Work></rdf:RDF></metadata><defs
     id="defs18" /><sodipodi:namedview
     pagecolor="#ffffff"
     bordercolor="#666666"
     borderopacity="1"
     objecttolerance="10"
     gridtolerance="10"
     guidetolerance="10"
     inkscape:pageopacity="0"
     inkscape:pageshadow="2"
     inkscape:window-width="1590"
     inkscape:window-height="932"
     id="namedview16"
     showgrid="false"
     inkscape:zoom="8.9001173"
     inkscape:cx="28.654551"
     inkscape:cy="125.47831"
     inkscape:window-x="20"
     inkscape:window-y="66"
     inkscape:window-maximized="0"
     inkscape:current-layer="Layer_1" /><style
     type="text/css"
     id="style4">
	.st0{fill:#414042;}
	.st1{fill:#CCCCCC;}
	.st2{fill:#1398BB;}
	.st3{fill:#31D8FF;}
</style><g
     id="Layer_1"><path
       id="path4148"
       d="m 35.431058,139.21668 -13.145167,-13.14517 -1.063107,-1.0631 1.063107,-1.06311 13.432493,-13.43249 c 0.847612,-0.84761 0.847612,-2.24116 0,-3.08876 -0.416622,-0.41662 -0.962542,-0.64648 -1.55156,-0.64648 -0.589021,0 -1.13494,0.22986 -1.551562,0.64648 l -17.584354,17.58436 17.297029,17.29703 c 0.416622,0.41663 0.962541,0.64649 1.55156,0.64649 0.589019,0 1.134938,-0.22986 1.551561,-0.64649 0.847612,-0.84761 0.847612,-2.24114 0,-3.08876 z"
       class="st0"
       inkscape:connector-curvature="0"
       style="fill:#54c9ef;fill-opacity:1" /><path
       style="fill:#54c9ef;fill-opacity:1"
       inkscape:connector-curvature="0"
       class="st0"
       d="M 35.431058,88.56498 22.285891,75.41981 21.222784,74.35671 22.285891,73.2936 35.718384,59.86111 c 0.847612,-0.84761 0.847612,-2.24116 0,-3.08876 -0.416622,-0.41662 -0.962542,-0.64648 -1.55156,-0.64648 -0.589021,0 -1.13494,0.22986 -1.551562,0.64648 L 15.030908,74.35671 32.327937,91.65374 c 0.416622,0.41663 0.962541,0.64649 1.55156,0.64649 0.589019,0 1.134938,-0.22986 1.551561,-0.64649 0.847612,-0.84761 0.847612,-2.24114 0,-3.08876 z"
       id="path4158" /><path
       id="path4169"
       d="m 35.431058,38.115548 -13.145167,-13.14517 -1.063107,-1.0631 1.063107,-1.06311 13.432493,-13.4324903 c 0.847612,-0.84761 0.847612,-2.24116 0,-3.08876 -0.416622,-0.41662 -0.962542,-0.64648 -1.55156,-0.64648 -0.589021,0 -1.13494,0.22986 -1.551562,0.64648 L 15.030908,23.907278 32.327937,41.204308 c 0.416622,0.41663 0.962541,0.64649 1.55156,0.64649 0.589019,0 1.134938,-0.22986 1.551561,-0.64649 0.847612,-0.84761 0.847612,-2.24114 0,-3.08876 z"
       class="st0"
       inkscape:connector-curvature="0"
       style="fill:#ffffff;fill-opacity:1" /></g><g
     id="Layer_2" /></svg>