<svg xmlns="http://www.w3.org/2000/svg" viewBox="0 0 36.14 38.65"><defs><style>.cls-1{fill:#ffffff;}</style></defs><title>Asset 17</title><g id="Layer_2" data-name="Layer 2"><g id="Layer_1-2" data-name="Layer 1"><g id="Layer_1-3" data-name="Layer 1"><path fill="#FFFFFF" d="M16.49,18.11c-.65.73-1.21,1.46-1.78,2.1a1.38,1.38,0,0,0-.08.57c.08,1.37.16,2.75.16,4.12A.94.94,0,0,1,13.91,26a1,1,0,0,1-1.13-.89c-.16-1.78-.24-3.48-.4-5.26a1.16,1.16,0,0,1,.32-.81c.89-1.21,1.86-2.43,2.75-3.64a3.24,3.24,0,0,1,2.1-1.29h1.13a1.46,1.46,0,0,1,1.54.73c.81,1,1.21,1.86,1.94,2.91a3.09,3.09,0,0,0,2.34,1.54c.89.16,1.78.4,2.67.65a5.57,5.57,0,0,1,.65.24,1,1,0,0,1,.49,1.05c-.08.4-.4.57-.81.65a4.61,4.61,0,0,1-1.05-.08L23.12,21a4.28,4.28,0,0,1-1.7-.89c-.24-.24-.49-.4-.73-.65V23c0,.32-.24,10.19-.08,13.58a6.24,6.24,0,0,1-.16,1.21,1.14,1.14,0,0,1-1.13.89,1.35,1.35,0,0,1-1.37-.81,7.57,7.57,0,0,1-.32-1.29c-.32-3.72-.73-10.43-.89-11.16s-.16-.89-.24-1.7a5,5,0,0,1-.08-1.05A41.54,41.54,0,0,0,16.49,18.11Z"/><path fill="#FFFFFF" d="M20.54,10.43a2.09,2.09,0,0,1-2.1,2.1h0a2.09,2.09,0,0,1-2.1-2.1V9.14A2.09,2.09,0,0,1,18.43,7h0a2.09,2.09,0,0,1,2.1,2.1Z"/><path fill="#FFFFFF" d="M4.53,30.08A17.89,17.89,0,0,0,13,35.49,1.56,1.56,0,0,0,15,34.44a1.29,1.29,0,0,0-.16-1.21,1.89,1.89,0,0,0-1-.81,15.49,15.49,0,0,1-3.72-1.7A15,15,0,0,1,6.87,28a1.72,1.72,0,0,0-1.21-.57,1.54,1.54,0,0,0-1.05.4A1.9,1.9,0,0,0,4,28.94,1.6,1.6,0,0,0,4.53,30.08Z"/><path fill="#FFFFFF" d="M33.07,28.38a1.59,1.59,0,0,0,.24-1.21,1.8,1.8,0,0,0-.65-1.05,1.63,1.63,0,0,0-.89-.24,1.59,1.59,0,0,0-1.37.73A14.31,14.31,0,0,1,27.17,30,15.4,15.4,0,0,1,24,31.85a1.6,1.6,0,0,0-.89.89,1.58,1.58,0,0,0,0,1.21,1.54,1.54,0,0,0,2.1.81,18.71,18.71,0,0,0,3.88-2.26A19.1,19.1,0,0,0,33.07,28.38Z"/><path fill="#FFFFFF" d="M1.86,25.47a1.55,1.55,0,0,0,1.46.16,1.6,1.6,0,0,0,.89-.89,1.58,1.58,0,0,0,0-1.21,1.29,1.29,0,0,0-.57-.73,1.63,1.63,0,0,0-.89-.24,1.38,1.38,0,0,0-.57.08,1.64,1.64,0,0,0-.89,2.1A1,1,0,0,0,1.86,25.47Z"/><path fill="#FFFFFF" d="M34.44,20.7c-.16,0-.24-.08-.4-.08A1.62,1.62,0,0,0,32.66,23a1.44,1.44,0,0,0,1,.73c.16,0,.24.08.4.08a1.62,1.62,0,0,0,1.37-2.43A1.83,1.83,0,0,0,34.44,20.7Z"/><path fill="#FFFFFF" d="M4.69,8.33a1.56,1.56,0,0,0-.81-.24,1.56,1.56,0,0,0-.81.24,1.27,1.27,0,0,0-.57.57A18.56,18.56,0,0,0,0,18.11v.49a1.6,1.6,0,0,0,.49,1.13,1.6,1.6,0,0,0,1.13.49v.32l.08-.32a1.6,1.6,0,0,0,1.13-.49,1.26,1.26,0,0,0,.4-1.13v-.4a14.74,14.74,0,0,1,2.1-7.6A1.71,1.71,0,0,0,4.69,8.33Z"/><path fill="#FFFFFF" d="M29.51,7.84a1.64,1.64,0,0,0,.32,1.21,14.18,14.18,0,0,1,2.1,3.72,16.7,16.7,0,0,1,1,4,1.6,1.6,0,0,0,.49,1.05,1.41,1.41,0,0,0,1.21.4,1.7,1.7,0,0,0,1.13-.57,2,2,0,0,0,.4-1.21A18.29,18.29,0,0,0,32.42,7a1.69,1.69,0,0,0-1.29-.65,1.41,1.41,0,0,0-1,.32A2,2,0,0,0,29.51,7.84Z"/><path fill="#FFFFFF" d="M7.6,3.72a1.7,1.7,0,0,0-1.05.4A1.41,1.41,0,0,0,6,5.26a1.64,1.64,0,0,0,.32,1.21,1.65,1.65,0,0,0,2.26.24,1.38,1.38,0,0,0,.57-1.05,1.64,1.64,0,0,0-.32-1.21A1.33,1.33,0,0,0,7.6,3.72Z"/><path fill="#FFFFFF" d="M27.81,2.83a1.63,1.63,0,0,0-.89-.24,1.63,1.63,0,0,0-1.62,1.94A1.59,1.59,0,0,0,26,5.58a1.76,1.76,0,0,0,2.34-.49A1.7,1.7,0,0,0,27.81,2.83Z"/><path fill="#FFFFFF" d="M11.08,1.86A1.59,1.59,0,0,0,11,3.07a1.65,1.65,0,0,0,2.1,1,14.35,14.35,0,0,1,8.25-.49,1.69,1.69,0,0,0,1.37-.32,1.54,1.54,0,0,0,.57-.89A1.59,1.59,0,0,0,23,1.13,1.42,1.42,0,0,0,22,.4,16.49,16.49,0,0,0,18,0,17.09,17.09,0,0,0,12,1.05,1.75,1.75,0,0,0,11.08,1.86Z"/></g></g></g></svg>