<svg xmlns="http://www.w3.org/2000/svg" viewBox="0 0 35.6 34.8"><defs><style>.cls-1{fill:#7c7c7c;}</style></defs><title>Asset 12</title><g id="Layer_2" data-name="Layer 2"><g id="Layer_1-2" data-name="Layer 1"><path class="cls-1" d="M35.6,11.6V8.5A8.14,8.14,0,0,0,34,3.7,9.22,9.22,0,0,0,26.2,0H9.8a16,16,0,0,0-3,.3A8.72,8.72,0,0,0,0,9v8a8.14,8.14,0,0,0,1.5,4.9A8.8,8.8,0,0,0,9,25.6h3.3a1.14,1.14,0,0,1,.8.3c3.1,2.4,6.3,4.7,9.4,7.1l1.8,1.4c.1.1.2.1.3.2l.2.1c.1,0,.1.1.2.1h.2c.1-.1.2-.2.2-.3v-9h.7a2,2,0,0,0,.7-.1,13.8,13.8,0,0,0,2-.3,8.84,8.84,0,0,0,6.8-8.6ZM22.8,22.5a.43.43,0,0,0-.4.4V29l-1.9-1.4-6.3-4.8a2.1,2.1,0,0,0-1.1-.4H8.7a5.88,5.88,0,0,1-5.6-4.6A4.87,4.87,0,0,1,3,16.6V8.9A5.93,5.93,0,0,1,8.6,3H25.9a7.54,7.54,0,0,1,3.5.8,5.42,5.42,0,0,1,3.1,5v8A6,6,0,0,1,27,22.6a18.48,18.48,0,0,0-2.4-.1H22.8Z"/><path class="cls-1" d="M25.5,15.1a2.26,2.26,0,0,1-2.3-2.3,2.33,2.33,0,0,1,2.3-2.3,2.24,2.24,0,0,1,2.2,2.3A2.13,2.13,0,0,1,25.5,15.1Z"/><path class="cls-1" d="M9.4,15.1a2.26,2.26,0,0,1-2.3-2.3,2.33,2.33,0,0,1,2.3-2.3,2.4,2.4,0,0,1,2.3,2.3A2.33,2.33,0,0,1,9.4,15.1Z"/><path class="cls-1" d="M17.4,15.1a2.26,2.26,0,0,1-2.3-2.3,2.4,2.4,0,0,1,2.3-2.3,2.4,2.4,0,0,1,2.3,2.3A2.2,2.2,0,0,1,17.4,15.1Z"/></g></g></svg>