<?xml version="1.0" encoding="UTF-8" standalone="no"?>
<!-- Generator: Adobe Illustrator 19.2.0, SVG Export Plug-In . SVG Version: 6.00 Build 0)  -->

<svg
   xmlns:dc="http://purl.org/dc/elements/1.1/"
   xmlns:cc="http://creativecommons.org/ns#"
   xmlns:rdf="http://www.w3.org/1999/02/22-rdf-syntax-ns#"
   xmlns:svg="http://www.w3.org/2000/svg"
   xmlns="http://www.w3.org/2000/svg"
   xmlns:sodipodi="http://sodipodi.sourceforge.net/DTD/sodipodi-0.dtd"
   xmlns:inkscape="http://www.inkscape.org/namespaces/inkscape"
   version="1.1"
   x="0px"
   y="0px"
   viewBox="0 0 50 150"
   style="enable-background:new 0 0 50 150;"
   xml:space="preserve"
   id="svg2"
   inkscape:version="0.91 r13725"
   sodipodi:docname="forward.svg"><metadata
     id="metadata20"><rdf:RDF><cc:Work
         rdf:about=""><dc:format>image/svg+xml</dc:format><dc:type
           rdf:resource="http://purl.org/dc/dcmitype/StillImage" /></cc:Work></rdf:RDF></metadata><defs
     id="defs18" /><sodipodi:namedview
     pagecolor="#ffffff"
     bordercolor="#666666"
     borderopacity="1"
     objecttolerance="10"
     gridtolerance="10"
     guidetolerance="10"
     inkscape:pageopacity="0"
     inkscape:pageshadow="2"
     inkscape:window-width="1403"
     inkscape:window-height="1043"
     id="namedview16"
     showgrid="false"
     inkscape:zoom="12"
     inkscape:cx="16.60045"
     inkscape:cy="44.64248"
     inkscape:window-x="48"
     inkscape:window-y="108"
     inkscape:window-maximized="0"
     inkscape:current-layer="Layer_1" /><style
     type="text/css"
     id="style4">
	.st0{fill:#414042;}
	.st1{fill:#CCCCCC;}
	.st2{fill:#1398BB;}
	.st3{fill:#31D8FF;}
</style><g
     id="Layer_1"
     style="fill:#00ffff"><path
       style="fill:#54c9ef;fill-opacity:1"
       id="path4722"
       d="m 19.312617,107.15215 c -0.413105,-0.41311 -0.954413,-0.64102 -1.538455,-0.64102 -0.584043,0 -1.125351,0.22791 -1.538456,0.64102 -0.840452,0.84045 -0.840452,2.22222 0,3.06266 l 13.319029,13.31904 1.054128,1.05412 -1.054128,1.05413 -13.034129,13.03413 c -0.840452,0.84045 -0.840452,2.22222 0,3.06267 0.413103,0.41309 0.954411,0.64101 1.538454,0.64101 0.584043,0 1.125351,-0.22792 1.538455,-0.64101 L 36.748436,124.58797 19.312617,107.15215 Z"
       class="st0"
       inkscape:connector-curvature="0" /><path
       inkscape:connector-curvature="0"
       class="st0"
       d="m 19.312617,58.235483 c -0.413105,-0.41311 -0.954413,-0.64102 -1.538455,-0.64102 -0.584043,0 -1.125351,0.22791 -1.538456,0.64102 -0.840452,0.84045 -0.840452,2.22222 0,3.06266 l 13.319029,13.31904 1.054128,1.05412 -1.054128,1.05413 -13.034129,13.03413 c -0.840452,0.84045 -0.840452,2.22222 0,3.06267 0.413103,0.41309 0.954411,0.64101 1.538454,0.64101 0.584043,0 1.125351,-0.22792 1.538455,-0.64101 L 36.748436,75.671303 19.312617,58.235483 Z"
       id="path4741"
       style="fill:#54c9ef;fill-opacity:1" /><path
       style="fill:#ffffff;fill-opacity:1"
       id="path4743"
       d="m 19.312617,6.485483 c -0.413105,-0.41311 -0.954413,-0.64102 -1.538455,-0.64102 -0.584043,0 -1.125351,0.22791 -1.538456,0.64102 -0.840452,0.84045 -0.840452,2.22222 0,3.06266 l 13.319029,13.31904 1.054128,1.05412 -1.054128,1.05413 -13.034129,13.03413 c -0.840452,0.84045 -0.840452,2.22222 0,3.06267 0.413103,0.41309 0.954411,0.64101 1.538454,0.64101 0.584043,0 1.125351,-0.22792 1.538455,-0.64101 L 36.748436,23.921303 19.312617,6.485483 Z"
       class="st0"
       inkscape:connector-curvature="0" /></g><g
     id="Layer_2" /></svg>