<svg xmlns="http://www.w3.org/2000/svg" viewBox="0 0 25.86 25.88"><defs><style>.cls-1{fill:#7c7c7c;}</style></defs><title>Asset 16</title><g id="Layer_2" data-name="Layer 2"><g id="Layer_1-2" data-name="Layer 1"><path class="cls-1" d="M12.79,25.88A13,13,0,0,1,.85,17.64c-.21-.51,0-.81.55-.82h1.5a.7.7,0,0,1,.7.46,10,10,0,0,0,7.57,5.84A10.37,10.37,0,0,0,17.92,3.84,9.81,9.81,0,0,0,14.24,2.7,10.16,10.16,0,0,0,7.81,4,10.43,10.43,0,0,0,3.57,8.64.61.61,0,0,1,3,9c-.56,0-1.12,0-1.68,0a.54.54,0,0,1-.49-.77A12.67,12.67,0,0,1,6.9,1.43,12.51,12.51,0,0,1,13.68,0a12.79,12.79,0,0,1,6.69,2.28,12.53,12.53,0,0,1,5.2,7.89A12.95,12.95,0,0,1,12.79,25.88Z"/><path class="cls-1" d="M14.94,14.23H.51A.54.54,0,0,1,0,13.68q0-.74,0-1.48a.54.54,0,0,1,.52-.55H15l-.19-.2-2.9-2.91a.55.55,0,0,1,0-.9l1-1a.55.55,0,0,1,.8,0L19,12a1.24,1.24,0,0,1,0,1.93l-5.33,5.33a.51.51,0,0,1-.86,0l-1-1a.5.5,0,0,1,0-.84l3-3a1.42,1.42,0,0,1,.2-.14Z"/></g></g></svg>