<svg xmlns="http://www.w3.org/2000/svg" viewBox="0 0 34.75 34.75"><defs><style>.cls-1{fill:#7c7c7c;}</style></defs><title>Asset 14</title><g id="Layer_2" data-name="Layer 2"><g id="Layer_1-2" data-name="Layer 1"><path fill="#FFFFFF" d="M17.37,30.72,14.14,24c-1.24-2.59-2.49-5.17-3.72-7.77C8.27,11.61,11,6.59,16.1,5.67A7.7,7.7,0,0,1,25,12.17a7.2,7.2,0,0,1-.64,3.88Q21,23.24,17.54,30.4C17.51,30.48,17.46,30.55,17.37,30.72Zm4.23-17.32a4.22,4.22,0,0,0-8.44-.09,4.22,4.22,0,0,0,8.44.09Z"/><path fill="#FFFFFF" d="M17.37,0A17.37,17.37,0,1,0,34.75,17.37,17.39,17.39,0,0,0,17.37,0Zm0,32.58A15.21,15.21,0,1,1,32.58,17.37,15.23,15.23,0,0,1,17.37,32.58Z"/></g></g></svg>