<?xml version="1.0" encoding="UTF-8" standalone="no"?>
<!-- Generator: Adobe Illustrator 19.2.0, SVG Export Plug-In . SVG Version: 6.00 Build 0)  -->

<svg
   xmlns:dc="http://purl.org/dc/elements/1.1/"
   xmlns:cc="http://creativecommons.org/ns#"
   xmlns:rdf="http://www.w3.org/1999/02/22-rdf-syntax-ns#"
   xmlns:svg="http://www.w3.org/2000/svg"
   xmlns="http://www.w3.org/2000/svg"
   xmlns:sodipodi="http://sodipodi.sourceforge.net/DTD/sodipodi-0.dtd"
   xmlns:inkscape="http://www.inkscape.org/namespaces/inkscape"
   version="1.1"
   x="0px"
   y="0px"
   viewBox="0 0 50 150"
   style="enable-background:new 0 0 50 150;"
   xml:space="preserve"
   id="svg3477"
   inkscape:version="0.91 r13725"
   sodipodi:docname="home.svg"><metadata
     id="metadata3509"><rdf:RDF><cc:Work
         rdf:about=""><dc:format>image/svg+xml</dc:format><dc:type
           rdf:resource="http://purl.org/dc/dcmitype/StillImage" /></cc:Work></rdf:RDF></metadata><defs
     id="defs3507" /><sodipodi:namedview
     pagecolor="#ffffff"
     bordercolor="#666666"
     borderopacity="1"
     objecttolerance="10"
     gridtolerance="10"
     guidetolerance="10"
     inkscape:pageopacity="0"
     inkscape:pageshadow="2"
     inkscape:window-width="1451"
     inkscape:window-height="1012"
     id="namedview3505"
     showgrid="false"
     inkscape:zoom="9.8994949"
     inkscape:cx="12.74203"
     inkscape:cy="49.763522"
     inkscape:window-x="0"
     inkscape:window-y="0"
     inkscape:window-maximized="0"
     inkscape:current-layer="Layer_1" /><style
     type="text/css"
     id="style3479">
	.st0{fill:#414042;}
	.st1{fill:#CCCCCC;}
	.st2{fill:#1398BB;}
	.st3{fill:#31D8FF;}
</style><g
     id="Layer_1"><g
       id="g3488"
       style="fill:#5252b9;fill-opacity:1" /><path
       inkscape:connector-curvature="0"
       id="path4429"
       d="m 9.6879307,136.92426 0,-7.24854 7.9818763,-5.34595 7.981879,-5.34591 3.084145,2.21799 c 1.696281,1.21989 5.172411,3.74672 7.724735,5.6152 l 4.640591,3.3972 0,6.97928 0,6.97926 -5.997071,0 -5.99707,0 0,-5.15453 c 0,-5.78941 -0.164945,-6.44628 -1.815421,-7.22946 -1.22838,-0.58292 -1.975001,-0.58892 -3.06616,-0.0245 -1.755799,0.90796 -1.969961,1.70539 -1.971147,7.33969 l -0.0011,5.06895 -6.282645,0 -6.2826463,0 0,-7.24853 z"
       style="fill:#54c9ef;fill-opacity:1" /><path
       inkscape:connector-curvature="0"
       id="path4431"
       d="m 8.1380317,123.31393 c -0.977323,-0.42552 -1.388973,-1.73056 -0.819857,-2.59913 0.131423,-0.20058 1.753838,-1.38175 3.6053833,-2.62488 1.851544,-1.24311 5.898448,-4.02368 8.993124,-6.17904 l 5.626681,-3.91887 2.299263,1.65827 c 1.264592,0.91207 5.147773,3.71279 8.629284,6.22387 3.959543,2.85586 6.40539,4.71133 6.53128,4.95477 0.528912,1.0228 0.01692,2.23227 -1.084684,2.56231 -0.471065,0.14115 -0.630004,0.12576 -1.09608,-0.10565 -0.299815,-0.1489 -3.867114,-2.66603 -7.927331,-5.59362 l -7.38221,-5.32287 -5.414372,3.77456 c -6.475866,4.5146 -10.034911,6.90575 -10.6794433,7.17506 -0.5769,0.24104 -0.717748,0.24054 -1.281038,-0.005 l 0,0 z"
       style="fill:#54c9ef;fill-opacity:1" /><path
       style="fill:#54c9ef;fill-opacity:1"
       d="m 9.6879307,82.92426 0,-7.24854 7.9818763,-5.34595 7.981879,-5.34591 3.084145,2.21799 c 1.696281,1.21989 5.172411,3.74672 7.724735,5.6152 l 4.640591,3.3972 0,6.97928 0,6.97926 -5.997071,0 -5.99707,0 0,-5.15453 c 0,-5.78941 -0.164945,-6.44628 -1.815421,-7.22946 -1.22838,-0.58292 -1.975001,-0.58892 -3.06616,-0.0245 -1.755799,0.90796 -1.969961,1.70539 -1.971147,7.33969 l -0.0011,5.06895 -6.282645,0 -6.2826463,0 0,-7.24853 z"
       id="path4166"
       inkscape:connector-curvature="0" /><path
       style="fill:#54c9ef;fill-opacity:1"
       d="m 8.1380317,69.31393 c -0.977323,-0.42552 -1.388973,-1.73056 -0.819857,-2.59913 0.131423,-0.20058 1.753838,-1.38175 3.6053833,-2.62488 1.851544,-1.24311 5.898448,-4.02368 8.993124,-6.17904 l 5.626681,-3.91887 2.299263,1.65827 c 1.264592,0.91207 5.147773,3.71279 8.629284,6.22387 3.959543,2.85586 6.40539,4.71133 6.53128,4.95477 0.528912,1.0228 0.01692,2.23227 -1.084684,2.56231 -0.471065,0.14115 -0.630004,0.12576 -1.09608,-0.10565 -0.299815,-0.1489 -3.867114,-2.66603 -7.927331,-5.59362 l -7.38221,-5.32287 -5.414372,3.77456 c -6.475866,4.5146 -10.034911,6.90575 -10.6794433,7.17506 -0.5769,0.24104 -0.717748,0.24054 -1.281038,-0.005 l 0,0 z"
       id="path4168"
       inkscape:connector-curvature="0" /><path
       inkscape:connector-curvature="0"
       id="path4170"
       d="m 9.6879307,32.214603 0,-7.24854 7.9818763,-5.34595 7.981879,-5.34591 3.084145,2.21799 c 1.696281,1.21989 5.172411,3.74672 7.724735,5.6152 l 4.640591,3.3972 0,6.97928 0,6.97926 -5.997071,0 -5.99707,0 0,-5.15453 c 0,-5.78941 -0.164945,-6.44628 -1.815421,-7.22946 -1.22838,-0.58292 -1.975001,-0.58892 -3.06616,-0.0245 -1.755799,0.90796 -1.969961,1.70539 -1.971147,7.33969 l -0.0011,5.06895 -6.282645,0 -6.2826463,0 0,-7.24853 z"
       style="fill:#ffffff;fill-opacity:1" /><path
       inkscape:connector-curvature="0"
       id="path4172"
       d="m 8.1380317,18.604273 c -0.977323,-0.42552 -1.388973,-1.73056 -0.819857,-2.59913 0.131423,-0.20058 1.753838,-1.38175 3.6053833,-2.62488 1.851544,-1.24311 5.898448,-4.0236803 8.993124,-6.1790407 l 5.626681,-3.91887 2.299263,1.65827 c 1.264592,0.91207 5.147773,3.7127904 8.629284,6.2238707 3.959543,2.85586 6.40539,4.71133 6.53128,4.95477 0.528912,1.0228 0.01692,2.23227 -1.084684,2.56231 -0.471065,0.14115 -0.630004,0.12576 -1.09608,-0.10565 -0.299815,-0.1489 -3.867114,-2.66603 -7.927331,-5.59362 l -7.38221,-5.3228707 -5.414372,3.7745607 c -6.475866,4.5146 -10.034911,6.90575 -10.6794433,7.17506 -0.5769,0.24104 -0.717748,0.24054 -1.281038,-0.005 l 0,0 z"
       style="fill:#ffffff;fill-opacity:1" /></g><g
     id="Layer_2" /></svg>