<?xml version="1.0" encoding="utf-8"?>
<!-- Generator: Adobe Illustrator 13.0.0, SVG Export Plug-In . SVG Version: 6.00 Build 14948)  -->
<!DOCTYPE svg PUBLIC "-//W3C//DTD SVG 1.1//EN" "http://www.w3.org/Graphics/SVG/1.1/DTD/svg11.dtd">
<svg version="1.1" id="Layer_1" xmlns="http://www.w3.org/2000/svg" xmlns:xlink="http://www.w3.org/1999/xlink" x="0px" y="0px"
	 width="150px" height="150px" viewBox="0 0 150 150" enable-background="new 0 0 150 150" xml:space="preserve">
<title>Asset 3</title>
<g id="Layer_2">
	<g id="Layer_1-2">
		<path fill="#AFAFAF" d="M135.105,20H12.135C4.381,20,0,25.958,0,34.238v80.608c-0.653,7.229,4.677,13.618,11.906,14.271
			c0.411,0.037,0.824,0.055,1.236,0.053h122.664c7.709,0,14.105-8.061,14.105-16.34V32.223C150,23.943,142.815,20,135.105,20z
			 M137.427,115.678c0.005,2.32-1.802,4.241-4.118,4.381H15.289c-2.316-0.14-4.122-2.061-4.118-4.381V33.449
			c-0.004-2.32,1.802-4.242,4.118-4.381h118.02c2.316,0.139,4.123,2.061,4.118,4.381V115.678z"/>
		<polygon fill="#AFAFAF" points="61.595,74.322 44.378,113.838 51.519,113.838 68.691,74.322 80.651,74.322 97.868,113.838 
			105.009,113.838 87.792,74.322 96.072,74.322 129.761,97.41 129.761,89.174 107.462,74.322 129.761,74.322 129.761,67.576 
			99.795,67.576 99.62,67.444 99.533,67.576 49.854,67.576 49.767,67.444 49.547,67.576 18.137,67.576 18.137,74.322 42.188,74.322 
			18.137,89.349 18.137,97.584 53.578,74.322 		"/>
	</g>
</g>
</svg>
