<svg xmlns="http://www.w3.org/2000/svg" viewBox="0 0 34.24 34.24"><defs><style type="text/css">.cls-1{fill:#7c7c7c;}</style></defs><title>Asset 3</title><g id="Layer_2" data-name="Layer 2"><g id="Layer_1-2" data-name="Layer 1"><path class="cls-1" d="M30.84,0H2.77C1,0,0,1.36,0,3.25v18.4a3,3,0,0,0,3,3.27H31c1.76,0,3.22-1.84,3.22-3.73V2.79C34.24.9,32.6,0,30.84,0Zm.53,21.84a1,1,0,0,1-.94,1H3.49a1,1,0,0,1-.94-1V3.07a1,1,0,0,1,.94-1H30.43a1,1,0,0,1,.94,1Z"/><polygon class="cls-1" points="14.06 12.4 10.13 21.42 11.76 21.42 15.68 12.4 18.41 12.4 22.34 21.42 23.97 21.42 20.04 12.4 21.93 12.4 29.62 17.67 29.62 15.79 24.53 12.4 29.62 12.4 29.62 10.86 22.78 10.86 22.74 10.83 22.72 10.86 11.38 10.86 11.36 10.83 11.31 10.86 4.14 10.86 4.14 12.4 9.63 12.4 4.14 15.83 4.14 17.71 12.23 12.4 14.06 12.4"/><!--<path class="cls-1" d="M5.85,35.71l-.11-2.11c0-.74-.07-1.52,0-2.11l-.88,3.66h-1l-.94-3.67a18.46,18.46,0,0,1,0,2.14l-.11,2.08H1.66l.4-5.19h1.4l.85,3.57.8-3.57H6.53l.4,5.19Z"/><path class="cls-1" d="M10.27,35.71H9.17V33.76L7.5,30.53H8.71l1,2.35,1-2.35h1.16l-1.66,3.23Z"/><path class="cls-1" d="M16,35.71l-1.54-5.19h1.18l1.06,4.27,1-4.27h1.12L17.3,35.71Z"/><path class="cls-1" d="M19.66,35.71V30.53h1.11v5.19Z"/><path class="cls-1" d="M23.34,31.33v1.35H25v.79H23.34V34.9h2v.81H22.24V30.53h3.1l-.12.8Z"/><path class="cls-1" d="M29.89,35.71l-.72-4.05-.76,4.05H27l-.9-5.19h1.1l.59,4.33.79-4.33h1.16l.76,4.33.67-4.33h1l-.91,5.19Z"/>--></g></g></svg>