<?xml version="1.0" encoding="utf-8"?>
<!-- Generator: Adobe Illustrator 13.0.0, SVG Export Plug-In . SVG Version: 6.00 Build 14948)  -->
<!DOCTYPE svg PUBLIC "-//W3C//DTD SVG 1.1//EN" "http://www.w3.org/Graphics/SVG/1.1/DTD/svg11.dtd">
<svg version="1.1" id="Layer_1" xmlns="http://www.w3.org/2000/svg" xmlns:xlink="http://www.w3.org/1999/xlink" x="0px" y="0px"
	 width="150px" height="150px" viewBox="0 0 150 150" enable-background="new 0 0 150 150" xml:space="preserve">
<title>Asset 3</title>
<g id="Layer_2">
	<g id="Layer_1-2">
		<path d="M135.105,19.5H12.135C4.381,19.5,0,25.458,0,33.738v80.608c-0.653,7.229,4.677,13.618,11.906,14.271
			c0.411,0.037,0.824,0.055,1.236,0.053h122.664c7.709,0,14.105-8.061,14.105-16.34V31.723C150,23.443,142.815,19.5,135.105,19.5z
			 M137.427,115.178c0.005,2.32-1.802,4.241-4.118,4.381H15.289c-2.316-0.14-4.122-2.061-4.118-4.381V32.949
			c-0.004-2.32,1.802-4.242,4.118-4.381h118.02c2.316,0.139,4.123,2.061,4.118,4.381V115.178z"/>
		<polygon points="61.595,73.822 44.378,113.338 51.519,113.338 68.691,73.822 80.651,73.822 97.868,113.338 105.009,113.338 
			87.792,73.822 96.072,73.822 129.761,96.91 129.761,88.674 107.462,73.822 129.761,73.822 129.761,67.076 99.795,67.076 
			99.62,66.944 99.533,67.076 49.854,67.076 49.767,66.944 49.547,67.076 18.137,67.076 18.137,73.822 42.188,73.822 18.137,88.849 
			18.137,97.084 53.578,73.822 		"/>
	</g>
</g>
</svg>
