<svg xmlns="http://www.w3.org/2000/svg" viewBox="0 0 34.02 34.02"><defs><style>.cls-1{fill:#7c7c7c;}</style></defs><title>Asset 15</title><g id="Layer_2" data-name="Layer 2"><g id="Layer_1-2" data-name="Layer 1"><path fill="#FFFFFF" d="M17,0A17,17,0,1,0,34,17,17,17,0,0,0,17,0Zm0,31.9A14.89,14.89,0,1,1,31.9,17,14.91,14.91,0,0,1,17,31.9Z"/><circle fill="#FFFFFF" cx="17.33" cy="13.35" r="4.07"/><path fill="#FFFFFF" d="M20.14,20.45H14.59a4.25,4.25,0,0,0-4.17,4.29v2.15A10.87,10.87,0,0,0,17,29.18a10.7,10.7,0,0,0,7.26-2.84V24.74A4.25,4.25,0,0,0,20.14,20.45Z"/><circle fill="#FFFFFF" cx="26.42" cy="13.43" r="2.11"/><path fill="#FFFFFF" d="M27.88,17.44H25.41a1.83,1.83,0,0,0-1.35.59,6.17,6.17,0,0,1,1.86,1.52,4.58,4.58,0,0,1,1,2.55A3.49,3.49,0,0,1,27,23.76v.36a14.6,14.6,0,0,0,2.37-4.85V19.1A1.74,1.74,0,0,0,27.88,17.44Z"/><circle fill="#FFFFFF" cx="7.91" cy="13.75" r="2.11"/><path fill="#FFFFFF" d="M7.4,24.53a5.06,5.06,0,0,1,0-1.23l0-.13c0-.12,0-.24,0-.36s0-.19,0-.29,0-.2,0-.3a5.11,5.11,0,0,1,1.91-3.39,3.89,3.89,0,0,1,.82-.53A1.86,1.86,0,0,0,9,17.87H6.56A1.78,1.78,0,0,0,5,19.53v.17A19.3,19.3,0,0,0,7.4,24.53Z"/></g></g></svg>