<svg xmlns="http://www.w3.org/2000/svg" viewBox="0 0 28.98 28.98"><defs><style>.cls-1{fill:#7c7c7c;}</style></defs><title>Asset 18</title><g id="Layer_2" data-name="Layer 2"><g id="Layer_1-2" data-name="Layer 1"><path class="cls-1" d="M14.47,29H12.69c-.17,0-.24-.05-.29-.22-.28-1-.59-2-.87-3.06a.44.44,0,0,0-.32-.33q-1.08-.43-2.15-.89a.4.4,0,0,0-.41,0L5.88,26a.25.25,0,0,1-.36,0Q4.25,24.71,3,23.45a.23.23,0,0,1,0-.34c.52-.92,1-1.85,1.55-2.77a.42.42,0,0,0,0-.44Q4,18.81,3.58,17.7a.35.35,0,0,0-.27-.25L.23,16.58a.26.26,0,0,1-.23-.3q0-1.79,0-3.58c0-.17.05-.24.22-.29l3.06-.87a.42.42,0,0,0,.32-.3c.27-.71.56-1.41.87-2.1a.53.53,0,0,0,0-.55c-.51-.9-1-1.8-1.52-2.7a.25.25,0,0,1,0-.36Q4.26,4.25,5.53,3a.23.23,0,0,1,.34,0l2.8,1.57a.38.38,0,0,0,.39,0q1.08-.47,2.17-.9a.42.42,0,0,0,.3-.31c.28-1,.59-2,.87-3.06a.26.26,0,0,1,.3-.23h3.58c.17,0,.24.05.29.22.28,1,.59,2,.87,3.06a.44.44,0,0,0,.32.33q1.08.43,2.15.89a.4.4,0,0,0,.41,0L23.1,2.93a.25.25,0,0,1,.36,0Q24.72,4.26,26,5.53a.23.23,0,0,1,0,.34c-.52.92-1,1.85-1.55,2.77a.42.42,0,0,0,0,.44q.48,1.09.91,2.2a.35.35,0,0,0,.27.25l3.08.88a.26.26,0,0,1,.23.3q0,1.79,0,3.58a.25.25,0,0,1-.22.29l-3.06.87a.42.42,0,0,0-.32.3c-.27.71-.56,1.41-.87,2.1a.53.53,0,0,0,0,.55c.51.9,1,1.8,1.52,2.7a.25.25,0,0,1,0,.36Q24.71,24.72,23.45,26a.23.23,0,0,1-.34,0l-2.8-1.57a.38.38,0,0,0-.39,0q-1.08.47-2.17.9a.42.42,0,0,0-.3.31c-.28,1-.59,2-.87,3.06,0,.18-.12.24-.3.23C15.67,29,15.07,29,14.47,29Zm.09-22.5a8,8,0,1,0,8,8.28A8.07,8.07,0,0,0,14.56,6.47Z"/><path class="cls-1" d="M17.83,14.5a3.34,3.34,0,1,1-3.34-3.35A3.32,3.32,0,0,1,17.83,14.5Z"/></g></g></svg>