<svg xmlns="http://www.w3.org/2000/svg" viewBox="0 0 33.96 33.96"><defs><style>.cls-1{fill:#b2b2b2;}</style></defs><title>Asset 4</title><g id="Layer_2" data-name="Layer 2"><g id="Layer_1-2" data-name="Layer 1"><g id="Layer_1-3" data-name="Layer 1"><path class="cls-1" d="M27,20.43H21.4c-.92,0-1.42-.72-2.51-2.61l-.07-.12c-.37-.72-1.18-2.29-1.76-2.29s-1.3,1.36-1.75,2.18c-1.26,2.13-2,2.83-2.89,2.83H6.94c-3.83,0-6.94-3.61-6.94-8V8C0,3.61,3.11,0,6.94,0H27C30.84,0,34,3.61,34,8V12.4C34,16.83,30.84,20.43,27,20.43Zm-5.13-2.5H27c2.45,0,4.44-2.48,4.44-5.54V8c0-3.05-2-5.54-4.44-5.54H6.94C4.49,2.5,2.5,5,2.5,8V12.4c0,3.05,2,5.54,4.44,5.54h5.13a10.63,10.63,0,0,0,1.06-1.57c.78-1.42,1.86-3.42,3.89-3.44h0c2.11,0,3.22,2.16,4,3.59l0,.06C21.2,16.84,21.61,17.54,21.88,17.93Z"/></g><!--<path class="cls-1" d="M13.87,30.69l-1.54-5.19H13.5l1.06,4.27,1-4.27H16.7l-1.49,5.19Z"/><path class="cls-1" d="M18.67,28.66v2h-1.1V25.51h1.62c1.39,0,2.09.5,2.09,1.55a1.42,1.42,0,0,1-1,1.4l1.34,2.23H20.34l-1.11-2Zm.58-.78c.58,0,.89-.24.89-.82s-.31-.77-1-.77h-.49v1.59Z"/>--></g></g></svg>